<svg width="320" height="180" viewBox="0 0 320 180" fill="none" xmlns="http://www.w3.org/2000/svg">
  <path d="M0 40C43 40 43 0 86 0C128 0 128 40 171 40C214 40 214 0 257 0C299 0 299 40 342 40" stroke="#DCEEDC" stroke-width="2"/>
  <path d="M-12 90C36 90 36 58 84 58C132 58 132 90 180 90C228 90 228 58 276 58C324 58 324 90 372 90" stroke="#D5E8D6" stroke-width="2"/>
  <path d="M-20 142C31 142 31 112 82 112C133 112 133 142 184 142C235 142 235 112 286 112C337 112 337 142 388 142" stroke="#CDE3CF" stroke-width="2"/>
</svg>
